{
    "asset" : {
        "generator" : "Khronos glTF Blender I/O v3.2.40",
        "version" : "2.0"
    },
    "scene" : 0,
    "scenes" : [
        {
            "name" : "Scene",
            "nodes" : [
                2
            ]
        }
    ],
    "nodes" : [
        {
            "mesh" : 0,
            "name" : "651017-GENERIC-SOFA_CCLASS4-fabric"
        },
        {
            "mesh" : 1,
            "name" : "651017-GENERIC-SOFA_CCLASS4-gold"
        },
        {
            "children" : [
                0,
                1
            ],
            "name" : "651017-GENERIC-SOFA_CCLASS4",
            "scale" : [
                0.0010000000474974513,
                0.0010000000474974513,
                0.0010000000474974513
            ]
        }
    ],
    "materials" : [
        {
            "doubleSided" : true,
            "name" : "Mat-651017-GENERIC-SOFA_CCLASS4-fabric",
            "normalTexture" : {
                "index" : 0
            },
            "pbrMetallicRoughness" : {
                "baseColorTexture" : {
                    "index" : 1
                },
                "metallicFactor" : 0,
                "metallicRoughnessTexture" : {
                    "index" : 2
                }
            }
        },
        {
            "doubleSided" : true,
            "name" : "Mat-651017-GENERIC-SOFA_CCLASS4-gold",
            "pbrMetallicRoughness" : {
                "baseColorTexture" : {
                    "index" : 3
                },
                "metallicFactor" : 0,
                "metallicRoughnessTexture" : {
                    "index" : 4
                }
            }
        }
    ],
    "meshes" : [
        {
            "name" : "Mesh",
            "primitives" : [
                {
                    "attributes" : {
                        "POSITION" : 0,
                        "NORMAL" : 1,
                        "TEXCOORD_0" : 2
                    },
                    "indices" : 3,
                    "material" : 0
                }
            ]
        },
        {
            "name" : "Mesh.001",
            "primitives" : [
                {
                    "attributes" : {
                        "POSITION" : 4,
                        "NORMAL" : 5,
                        "TEXCOORD_0" : 6
                    },
                    "indices" : 7,
                    "material" : 1
                }
            ]
        }
    ],
    "textures" : [
        {
            "sampler" : 0,
            "source" : 0
        },
        {
            "sampler" : 0,
            "source" : 1
        },
        {
            "sampler" : 0,
            "source" : 2
        },
        {
            "sampler" : 0,
            "source" : 3
        },
        {
            "sampler" : 0,
            "source" : 4
        }
    ],
    "images" : [
        {
            "mimeType" : "image/png",
            "name" : "651017-GENERIC-SOFA_CCLASS4-gold_N",
            "uri" : "651017-GENERIC-SOFA_CCLASS4-gold_N.png"
        },
        {
            "mimeType" : "image/jpeg",
            "name" : "velvet",
            "uri" : "velvet.jpg"
        },
        {
            "mimeType" : "image/png",
            "name" : "651017-GENERIC-SOFA_CCLASS4-fabric_R",
            "uri" : "651017-GENERIC-SOFA_CCLASS4-fabric_R.png"
        },
        {
            "mimeType" : "image/png",
            "name" : "651017-GENERIC-SOFA_CCLASS4-gold_D",
            "uri" : "651017-GENERIC-SOFA_CCLASS4-gold_D.png"
        },
        {
            "mimeType" : "image/png",
            "name" : "651017-GENERIC-SOFA_CCLASS4-gold_R",
            "uri" : "651017-GENERIC-SOFA_CCLASS4-gold_R.png"
        }
    ],
    "accessors" : [
        {
            "bufferView" : 0,
            "componentType" : 5126,
            "count" : 11394,
            "max" : [
                1250.52099609375,
                765.4663696289062,
                1081.738037109375
            ],
            "min" : [
                -1250.52099609375,
                179.514404296875,
                0.6085000038146973
            ],
            "type" : "VEC3"
        },
        {
            "bufferView" : 1,
            "componentType" : 5126,
            "count" : 11394,
            "type" : "VEC3"
        },
        {
            "bufferView" : 2,
            "componentType" : 5126,
            "count" : 11394,
            "type" : "VEC2"
        },
        {
            "bufferView" : 3,
            "componentType" : 5123,
            "count" : 59976,
            "type" : "SCALAR"
        },
        {
            "bufferView" : 4,
            "componentType" : 5126,
            "count" : 1252,
            "max" : [
                1060.8409423828125,
                181.26930236816406,
                1035.3349609375
            ],
            "min" : [
                -1060.8409423828125,
                1,
                34.75379943847656
            ],
            "type" : "VEC3"
        },
        {
            "bufferView" : 5,
            "componentType" : 5126,
            "count" : 1252,
            "type" : "VEC3"
        },
        {
            "bufferView" : 6,
            "componentType" : 5126,
            "count" : 1252,
            "type" : "VEC2"
        },
        {
            "bufferView" : 7,
            "componentType" : 5123,
            "count" : 5724,
            "type" : "SCALAR"
        }
    ],
    "bufferViews" : [
        {
            "buffer" : 0,
            "byteLength" : 136728,
            "byteOffset" : 0
        },
        {
            "buffer" : 0,
            "byteLength" : 136728,
            "byteOffset" : 136728
        },
        {
            "buffer" : 0,
            "byteLength" : 91152,
            "byteOffset" : 273456
        },
        {
            "buffer" : 0,
            "byteLength" : 119952,
            "byteOffset" : 364608
        },
        {
            "buffer" : 0,
            "byteLength" : 15024,
            "byteOffset" : 484560
        },
        {
            "buffer" : 0,
            "byteLength" : 15024,
            "byteOffset" : 499584
        },
        {
            "buffer" : 0,
            "byteLength" : 10016,
            "byteOffset" : 514608
        },
        {
            "buffer" : 0,
            "byteLength" : 11448,
            "byteOffset" : 524624
        }
    ],
    "samplers" : [
        {
            "magFilter" : 9729,
            "minFilter" : 9987
        }
    ],
    "buffers" : [
        {
            "byteLength" : 536072,
            "uri" : "pink sofa.bin"
        }
    ]
}
